{"title":"AC-DC Live At River Plate [HD] [1080P]","uid":8813813,"size":4877233873,"categoryP":"video","categoryS":"music_videos","magnet":"?xt=urn:btih:f94eab22d0fa7b245b40fb100a9cf03d1e2e370d&amp;dn=AC-DC+Live+At+River+Plate+%5BHD%5D+%5B1080P%5D+&amp;tr=udp%3A%2F%2Ftracker.openbittorrent.com%3A80&amp;tr=udp%3A%2F%2Fopen.demonii.com%3A1337&amp;tr=udp%3A%2F%2Ftracker.coppersurfer.tk%3A6969&amp;tr=udp%3A%2F%2Fexodus.desync.com%3A6969","seeders":2,"leechers":1,"uploader":"justadog","files":19,"time":1376528460,"description":"This is the full concert, with each song in a separate clip.\nSo these clips are all 1080p, except for Highway to Hell.\n\nFor example the song We Salute You\n\n\nGeneral\nComplete name                            : AC-DC  -  Live At River PlateAC-DC - For Those About to Rock (We Salute You) [HD] Live at River Plate (Argentina).mp4\nFormat                                   : MPEG-4\nFormat profile                           : Base Media / Version 2\nCodec ID                                 : mp42\nFile size                                : 414 MiB\nDuration                                 : 9mn 48s\nOverall bit rate mode                    : Variable\nOverall bit rate                         : 5 898 Kbps\nEncoded date                             : UTC 2012-03-12 02:38:50\nTagged date                              : UTC 2012-05-14 21:39:55\n\n\nVideo\nID                                       : 1\nFormat                                   : AVC\nFormat/Info                              : Advanced Video Codec\nFormat profile                           : &lt;a class=&quot;__cf_email__&quot; href=&quot;/cdn-cgi/l/email-protection&quot; data-cfemail=&quot;d199b8b6b9919de5ffe1&quot;&gt;[email&amp;#160;protected]&lt;/a&gt;&lt;script cf-hash='f9e31' type=&quot;text/javascript&quot;&gt;\n/* &lt;![CDATA[ */!function(){try{var t=&quot;currentScript&quot;in document?document.currentScript:function(){for(var t=document.getElementsByTagName(&quot;script&quot;),e=t.length;e--;)if(t[e].getAttribute(&quot;cf-hash&quot;))return t[e]}();if(t&amp;&amp;t.previousSibling){var e,r,n,i,c=t.previousSibling,a=c.getAttribute(&quot;data-cfemail&quot;);if(a){for(e=&quot;&quot;,r=parseInt(a.substr(0,2),16),n=2;a.length-n;n+=2)i=parseInt(a.substr(n,2),16)^r,e+=String.fromCharCode(i);e=document.createTextNode(e),c.parentNode.replaceChild(e,c)}}}catch(u){}}();/* ]]&gt; */&lt;/script&gt;\nFormat settings, CABAC                   : Yes\nFormat settings, ReFrames                : 1 frame\nCodec ID                                 : avc1\nCodec ID/Info                            : Advanced Video Coding\nDuration                                 : 9mn 48s\nBit rate                                 : 5 746 Kbps\nMaximum bit rate                         : 13.9 Mbps\nWidth                                    : 1 920 pixels\nHeight                                   : 1 080 pixels\nDisplay aspect ratio                     : 16:9\nFrame rate mode                          : Constant\nFrame rate                               : 29.970 fps\nColor space                              : YUV\nChroma subsampling                       : 4:2:0\nBit depth                                : 8 bits\nScan type                                : Progressive\nBits/(Pixel*Frame)                       : 0.092\nStream size                              : 403 MiB (97%)\nTagged date                              : UTC 2012-03-12 02:38:53\n\nAudio\nID                                       : 2\nFormat                                   : AAC\nFormat/Info                              : Advanced Audio Codec\nFormat profile                           : LC\nCodec ID                                 : 40\nDuration                                 : 9mn 48s\nBit rate mode                            : Variable\nBit rate                                 : 150 Kbps\nMaximum bit rate                         : 180 Kbps\nChannel(s)                               : 2 channels\nChannel positions                        : Front: L R\nSampling rate                            : 44.1 KHz\nCompression mode                         : Lossy\nStream size                              : 10.5 MiB (3%)\nEncoded date                             : UTC 2012-03-12 02:38:52\nTagged date                              : UTC 2012-03-12 02:38:53\n\n\njustadog who uploaded this..\n","torrent":{"xt":"urn:btih:f94eab22d0fa7b245b40fb100a9cf03d1e2e370d","amp;dn":"AC-DC+Live+At+River+Plate+%5BHD%5D+%5B1080P%5D+","amp;tr":["udp%3A%2F%2Ftracker.openbittorrent.com%3A80","udp%3A%2F%2Fopen.demonii.com%3A1337","udp%3A%2F%2Ftracker.coppersurfer.tk%3A6969","udp%3A%2F%2Fexodus.desync.com%3A6969"],"infoHash":"f94eab22d0fa7b245b40fb100a9cf03d1e2e370d","infoHashBuffer":{"type":"Buffer","data":[249,78,171,34,208,250,123,36,91,64,251,16,10,156,240,61,30,46,55,13]},"announce":[],"urlList":[]}}